<?xml version="1.0" encoding="UTF-8"?>
<svg width="1440px" height="928px" viewBox="0 0 1440 928" version="1.1" xmlns="http://www.w3.org/2000/svg" xmlns:xlink="http://www.w3.org/1999/xlink">
    <!-- Generator: Sketch 55.1 (78136) - https://sketchapp.com -->
    <title>illustration</title>
    <desc>Created with Sketch.</desc>
    <defs>
        <linearGradient x1="95.586906%" y1="30.4147366%" x2="2.4567407%" y2="68.7901204%" id="linearGradient-1">
            <stop stop-color="#149BAE" offset="0%"></stop>
            <stop stop-color="#271E5D" offset="100%"></stop>
        </linearGradient>
        <path d="M1129.32875,35 L1100.73857,39.5985297 L1090.4808,66.3360961 L1108.80933,88.4764089 L1136.08239,84.093515 C1136.11083,84.2593887 1136.17287,84.4214346 1136.26852,84.5719969 L1136.26852,84.5719969 L1184.05584,160.415838 C1184.17475,160.605955 1184.33632,160.755241 1184.51987,160.859869 L1184.51987,160.859869 L1162.97286,197.567722 C1162.72081,197.423539 1162.42222,197.35719 1162.11589,197.401848 L1162.11589,197.401848 L1061.73421,211.2153 C1061.50672,211.245923 1061.29991,211.332688 1061.128,211.459007 L1061.128,211.459007 L1040.00883,182.88407 L1003.04801,186.796138 L988,220.348562 L1009.91151,249.990194 L1046.87362,246.076851 L1061.37617,213.726373 C1061.54162,213.799102 1061.72387,213.838657 1061.91259,213.838657 L1061.91259,213.838657 C1061.97851,213.839933 1062.04313,213.832277 1062.10776,213.823345 L1062.10776,213.823345 L1162.48427,200.016273 C1162.66006,199.990754 1162.82421,199.933336 1162.97027,199.849123 L1162.97027,199.849123 L1184.39708,236.623325 C1184.16441,236.754748 1183.97053,236.957624 1183.84903,237.219195 L1183.84903,237.219195 L1131.86735,349.926554 C1131.78591,350.102635 1131.74714,350.287648 1131.74714,350.47011 L1131.74714,350.47011 L1104.12121,350.425451 L1089.59539,375.171257 L1104.0359,399.956618 L1133.00222,400 L1147.52803,375.260574 L1133.74673,351.61719 C1133.98069,351.484491 1134.17715,351.280339 1134.29995,351.020045 L1134.29995,351.020045 L1186.28163,238.312685 C1186.36177,238.136604 1186.39925,237.950315 1186.39925,237.767854 L1186.39925,237.767854 L1229.37436,237.832927 C1229.37307,238.099601 1229.4545,238.368827 1229.62383,238.60105 L1229.62383,238.60105 L1293.36524,326.733581 C1293.48286,326.893075 1293.62763,327.018119 1293.79049,327.109987 L1293.79049,327.109987 L1280.07253,350.789097 L1294.6578,375.494073 L1323.61895,375.372858 L1338,350.55177 L1323.41214,325.857003 L1295.7888,325.962907 C1295.7875,325.70006 1295.70478,325.434663 1295.53675,325.207543 L1295.53675,325.207543 L1231.79533,237.075012 C1231.68159,236.915518 1231.53811,236.789199 1231.37783,236.696054 L1231.37783,236.696054 L1253.59827,198.851329 L1230.83754,159.790622 L1186.52722,159.716616 C1186.52722,159.479289 1186.46259,159.238135 1186.32687,159.021223 L1186.32687,159.021223 L1138.5305,83.1824856 C1138.37152,82.9260193 1138.13498,82.7435582 1137.86871,82.6453099 L1137.86871,82.6453099 L1147.65599,57.1454165 L1129.32875,35 Z M1095,66.1243191 L1104.15285,42.1256008 L1129.64769,38 L1146,57.8756809 L1136.84586,81.8756809 L1111.34457,86 L1095,66.1243191 Z M1187.18773,234.928396 L1166,198.433511 L1187.31163,162 L1229.80453,162.069046 L1251,198.566489 L1229.68708,235 L1187.18773,234.928396 Z M993,219.061601 L1006.63864,188.557806 L1040.13992,185 L1060,211.944723 L1046.36136,242.442194 L1012.86136,246 L993,219.061601 Z M1283,350.608733 L1295.90683,328.10485 L1321.91008,328 L1335,350.397739 L1322.09446,372.900328 L1296.09771,373 L1283,350.608733 Z M1106.96657,397.955934 L1094,375.460471 L1107.03927,353 L1133.03213,353.047954 L1146,375.539529 L1132.95943,398 L1106.96657,397.955934 Z M230.112579,62 L215.971074,86.1087408 L229.461606,109.110571 C229.23383,109.240496 229.043586,109.437931 228.92711,109.692686 L178.342791,219.512478 C178.263846,219.684438 178.226315,219.86404 178.226315,220.041095 L136.257353,220.041095 C136.257353,219.782518 136.178408,219.520121 136.014047,219.293389 L73.6281011,133.586159 C73.5142133,133.429485 73.3718535,133.305929 73.2126693,133.216764 L86.571195,110.142329 L72.289919,86.1087408 L44.0043215,86.2679627 L30,110.459499 L44.2851586,134.487992 L71.2649285,134.33896 C71.2662227,134.594989 71.3451676,134.853565 71.5082343,135.076476 L133.896768,220.787527 C134.008068,220.94038 134.147839,221.062662 134.303141,221.151827 L112.669628,258.036531 L134.954113,296.033242 L178.226315,296.033242 C178.227609,296.265069 178.291024,296.500717 178.425619,296.71089 L225.21799,370.477752 C225.374586,370.726138 225.603655,370.904467 225.862491,371 L227.60834,369.591205 C227.581162,369.429435 227.522924,369.26894 227.428449,369.121182 L180.634784,295.353046 C180.518308,295.168349 180.361712,295.024412 180.183115,294.92251 L201.166949,259.147263 C201.411549,259.286105 201.70274,259.349793 201.999107,259.306485 L300.008651,245.701294 C300.228661,245.670723 300.427965,245.586654 300.596208,245.465645 L321.272028,273.25687 L357.357648,269.387141 L372,236.693156 L350.554144,207.867626 L314.465935,211.736081 L300.352902,243.255645 C300.19113,243.185588 300.013827,243.147375 299.82876,243.147375 C299.767933,243.147375 299.704518,243.15247 299.643692,243.160112 L201.635442,256.766578 C201.465905,256.789506 201.308015,256.845552 201.166949,256.9258 L180.183115,221.1531 C180.410891,221.024449 180.601135,220.82574 180.717611,220.572259 L231.299342,110.751193 C231.379581,110.579234 231.417112,110.398358 231.417112,110.221303 L258.398176,110.221303 L272.543563,86.1087408 L258.398176,62 L230.112579,62 Z M218,85.9993497 L230.750653,64 L256.249347,64 L269,85.9993497 L256.249347,108 L230.750653,108 L218,85.9993497 Z M33,111.141952 L45.6223662,89.1438968 L71.1256305,89 L84,110.856751 L71.3776338,132.856103 L45.876981,133 L33,111.141952 Z M303,243.547592 L316.388667,213.549504 L349.386086,210 L369,236.448584 L355.612623,266.450496 L322.611333,270 L303,243.547592 Z M116,258.000629 L136.75,223 L178.248708,223 L199,258.000629 L178.248708,293 L136.75,293 L116,258.000629 Z M1387.77421,530.770703 L1387.68373,559.109975 C1387.42651,559.108702 1387.16671,559.177468 1386.93405,559.323914 L1386.93405,559.323914 L1242.84102,649.32982 C1242.65359,649.446977 1242.50366,649.602337 1242.39638,649.779346 L1242.39638,649.779346 L1210.40557,630.875037 L1176.57676,649.378211 L1175.95245,686.129869 C1175.72625,686.124775 1175.49489,686.175713 1175.28032,686.287776 L1175.28032,686.287776 L1098.07456,726.431895 C1097.84061,726.552872 1097.65707,726.731155 1097.53169,726.938726 L1097.53169,726.938726 L1072.8671,712.361588 L1046.50668,726.780819 L1046,756.482679 L1071.85632,771.76276 L1098.22062,757.343529 L1098.70145,729.00935 C1098.92765,729.01317 1099.15902,728.963506 1099.37487,728.851443 L1099.37487,728.851443 L1176.57546,688.707324 C1176.80812,688.586346 1176.99296,688.409337 1177.11963,688.200492 L1177.11963,688.200492 L1207.91999,706.404406 C1207.78685,706.622165 1207.71318,706.879402 1207.71964,707.151919 L1207.71964,707.151919 L1214.30393,903.640851 C1214.31168,903.866251 1214.37502,904.07637 1214.47972,904.261019 L1214.47972,904.261019 L1189.33042,918.016786 L1188.82762,947.716098 L1214.68394,963 L1241.04695,948.576948 L1241.54975,918.876362 L1216.88517,904.300496 C1217.00667,904.100565 1217.07776,903.867525 1217.08293,903.619203 L1217.08293,903.619203 C1217.08293,903.596281 1217.08422,903.574632 1217.08422,903.54789 L1217.08422,903.54789 L1210.49993,707.062778 C1210.49347,706.837378 1210.43143,706.627259 1210.32673,706.443883 L1210.32673,706.443883 L1241.72425,689.266367 C1241.84962,689.487946 1242.03834,689.67769 1242.28005,689.807581 L1242.28005,689.807581 L1319.74302,730.741237 C1319.94466,730.846933 1320.16181,730.897871 1320.37508,730.901691 L1320.37508,730.901691 L1319.60472,776.338252 L1360.35389,800.41912 L1401.89411,777.694473 L1402.68774,730.888957 L1361.94245,706.808089 L1321.61335,728.866724 C1321.48927,728.645144 1321.30185,728.454127 1321.05885,728.325509 L1321.05885,728.325509 L1243.59587,687.396948 C1243.39423,687.289978 1243.17708,687.237767 1242.96381,687.233947 L1242.96381,687.233947 L1243.56485,651.855064 C1243.82724,651.858884 1244.09221,651.790118 1244.33004,651.641125 L1244.33004,651.641125 L1388.42437,561.633945 C1388.61696,561.511695 1388.77077,561.349967 1388.87935,561.166591 L1388.87935,561.166591 L1413.74298,575.415181 L1439.90306,560.643204 L1440,530.937524 L1413.93687,516 L1387.77421,530.770703 Z M1391,558.674998 L1391.08965,532.173726 L1414.58575,519 L1438,532.32246 L1437.91035,558.821189 L1414.41425,572 L1391,558.674998 Z M1179,685.993151 L1179.59281,650.994426 L1210.59475,634 L1241,652.004299 L1240.40719,687.004299 L1209.41042,704 L1179,685.993151 Z M1323,774.619832 L1323.74697,731.121101 L1362.74567,710 L1401,732.380168 L1400.25433,775.880168 L1361.25433,797 L1323,774.619832 Z M1049,754.367287 L1049.45001,727.863473 L1072.94615,715 L1096,728.633984 L1095.5487,755.132713 L1072.0487,768 L1049,754.367287 Z M1192,946.365689 L1192.44875,919.866324 L1215.94875,907 L1239,920.635583 L1238.54996,947.133676 L1215.04996,960 L1192,946.365689 Z M146.67662,620.66149 L146.328806,642.578399 L164.571581,653.313653 C164.482365,653.461181 164.430645,653.632874 164.428059,653.814741 L164.428059,653.814741 C164.426766,653.831275 164.428059,653.850352 164.426766,653.866885 L164.426766,653.866885 L169.466836,798.84432 C169.472007,799.010926 169.517262,799.166085 169.593548,799.302168 L169.593548,799.302168 L146.402506,812.003623 C146.309411,811.839561 146.169768,811.699663 145.991336,811.60555 L145.991336,811.60555 L88.7054785,781.467733 C88.5554919,781.388881 88.3938683,781.350727 88.2361237,781.349456 L88.2361237,781.349456 L88.766249,747.821023 L58.6266862,730.08706 L27.9453612,746.891338 L27.3997201,781.429579 L57.5354039,799.163542 L87.3232738,782.852722 C87.415076,783.015512 87.5547187,783.156682 87.7331512,783.250795 L87.7331512,783.250795 L145.020301,813.383524 C145.170288,813.462376 145.329326,813.501802 145.488363,813.504345 L145.488363,813.504345 L145.077193,839.611832 C144.883244,839.609288 144.68671,839.658888 144.509571,839.769535 L144.509571,839.769535 L38.0927353,906.307506 C37.9505065,906.397803 37.8367235,906.517352 37.7565583,906.652163 L37.7565583,906.652163 L19.3663823,896.161095 L0.0452545988,907.082031 L0,929.001484 L19.2745801,940 L38.5982938,929.079063 L38.6409624,908.170691 C38.8310317,908.170691 39.022394,908.119819 39.1943615,908.011716 L39.1943615,908.011716 L145.611197,841.473745 C145.752133,841.387263 145.862037,841.271529 145.942202,841.140534 L145.942202,841.140534 L169.601306,855.062916 L194.587017,841.380904 L195.017582,814.263609 C195.184377,814.266153 195.355052,814.227999 195.512797,814.145332 L195.512797,814.145332 L252.540056,784.457732 C252.712023,784.367434 252.847787,784.236439 252.940882,784.082551 L252.940882,784.082551 L271.182365,794.817805 L290.653479,784.156316 L291,762.238135 L271.8767,750.983987 L252.405585,761.649292 L252.07458,782.556393 C251.907785,782.552577 251.735817,782.590731 251.57678,782.672126 L251.57678,782.672126 L194.555985,812.360998 C194.382725,812.450024 194.246961,812.579748 194.152573,812.733635 L194.152573,812.733635 L171.371408,799.330147 C171.469675,799.168629 171.52398,798.977859 171.518808,798.775643 L171.518808,798.775643 L166.480032,653.795664 C166.47486,653.63033 166.428312,653.475171 166.350733,653.34036 L166.350733,653.34036 L184.92322,643.169785 L185.271034,621.250332 L166.149027,610 L146.67662,620.66149 Z M148,640.987239 L148.310828,621.487239 L165.810828,612 L183,622.012761 L182.687872,641.512761 L165.189172,651 L148,640.987239 Z M30,779.568456 L30.5074451,747.567192 L59.0068012,732 L87,748.429017 L86.4925549,780.429017 L57.9931988,796 L30,779.568456 Z M254,781.985973 L254.310828,762.488506 L271.810828,753 L289,763.011494 L288.687872,782.512761 L271.189172,792 L254,781.985973 Z M148,839.648423 L148.41141,813.649064 L171.407516,801 L194,814.349013 L193.592484,840.349654 L170.589888,853 L148,839.648423 Z M3,928.215498 L3.04328129,908.716132 L20.0413718,899 L37,908.784502 L36.9605376,928.283868 L19.9611741,938 L3,928.215498 Z" id="path-2"></path>
    </defs>
    <g id="Versão-2" stroke="none" stroke-width="1" fill="none" fill-rule="evenodd">
        <g id="Home-Desktop" transform="translate(0.000000, -35.000000)">
            <mask id="mask-3" fill="white">
                <use xlink:href="#path-2"></use>
            </mask>
            <use id="illustration" fill-opacity="0.7" fill="url(#linearGradient-1)" xlink:href="#path-2"></use>
        </g>
    </g>
</svg>